# xmcd
#
# Track frame offsets: 
#        150
#        18218
#        31054
#        44564
#        59040
#        82887
#        104038
#        119312
#        134133
#        146822
#        165765
#
# Disc length: 2500 seconds
#
# Revision: 0
# Processed by: cddbd v1.5.2PL0 Copyright (c) Steve Scherf et al.
# Submitted via: ExactAudioCopy v0.99pb5
#
DISCID=9709c20b
DTITLE=Eternal Suffering - Echo Of Lost Words
DYEAR=2010
DGENRE=Death Metal
TTITLE0=Her Scars Are Mine
TTITLE1=Death In Her Eyes
TTITLE2=In Silence
TTITLE3=The Forever Curse
TTITLE4=Echo Of Lost Words
TTITLE5=Disgorging The Corpse
TTITLE6=Her Scars Are Mine (Live)
TTITLE7=My Once Shadowed Desire (Live)
TTITLE8=Death In Her Eyes (Live)
TTITLE9=Rise (Live)
TTITLE10=Echo Of Lost Words (Live)
EXTD=
EXTT0=
EXTT1=
EXTT2=
EXTT3=
EXTT4=
EXTT5=
EXTT6=
EXTT7=
EXTT8=
EXTT9=
EXTT10=
PLAYORDER=
